<svg width="201" height="41" viewBox="0 0 201 41" fill="none" xmlns="http://www.w3.org/2000/svg">
<g clip-path="url(#clip0_2_1019)">
<path d="M54.1404 32.7036V39.8804H49.6367V16.5207H54.1404V17.6375C55.3927 16.8245 56.9851 16.2837 58.6439 16.2837C63.7563 16.2837 67.5145 20.3463 67.5145 25.1869C67.5145 29.9936 63.7902 34.0902 58.6439 34.0902C56.9173 34.0912 55.3939 33.5493 54.1404 32.7036ZM54.1404 23.055V27.1854C54.9196 28.7764 56.4768 29.8264 58.3052 29.8264C60.9465 29.8264 63.012 27.7951 63.012 25.188C63.012 22.5469 60.9805 20.5495 58.339 20.5495C56.5107 20.5495 54.9196 21.5318 54.1404 23.055Z" fill="#083E9E"/>
<path d="M69.9502 11.8116C69.9502 10.3223 71.0332 9.20447 72.49 9.20447C73.9456 9.20447 75.1313 10.3212 75.1313 11.8116C75.1313 13.2332 73.9467 14.4188 72.49 14.4188C71.0332 14.4177 69.9502 13.2332 69.9502 11.8116ZM70.2212 16.5201H74.7925V33.8195H70.2212V16.5201Z" fill="#083E9E"/>
<path d="M77.499 25.1198C77.499 20.3458 81.2235 16.3181 86.3697 16.3181C88.0625 16.3181 89.6198 16.7585 90.941 17.4687V16.5203H95.4108V32.8374C95.4108 37.3404 91.517 39.7771 86.6418 39.7771C83.4594 39.7771 80.4115 38.8298 78.4138 37.2716L80.2759 34.0558C81.9349 35.1725 84.2036 35.8838 86.6418 35.8838C89.7902 35.8838 90.7727 34.6316 90.9083 32.6003C89.5542 33.4471 87.9969 33.9542 86.3708 33.9542C81.1895 33.9553 77.499 30.0959 77.499 25.1198ZM90.941 27.0494V23.1901C90.1618 21.5652 88.5367 20.4813 86.7084 20.4813C84.067 20.4813 82.0015 22.5804 82.0015 25.1198C82.0015 27.7947 84.0332 29.6566 86.6746 29.6566C88.6045 29.6555 90.1279 28.6743 90.941 27.0494Z" fill="#083E9E"/>
<path d="M98.1172 25.1198C98.1172 20.3458 101.842 16.3181 106.988 16.3181C108.68 16.3181 110.238 16.7585 111.559 17.4687V16.5203H116.029V32.8374C116.029 37.3404 112.135 39.7771 107.26 39.7771C104.077 39.7771 101.03 38.8298 99.0318 37.2716L100.894 34.0558C102.553 35.1725 104.822 35.8838 107.26 35.8838C110.408 35.8838 111.391 34.6316 111.526 32.6003C110.172 33.4471 108.615 33.9542 106.989 33.9542C101.808 33.9553 98.1172 30.0959 98.1172 25.1198ZM111.559 27.0494V23.1901C110.78 21.5652 109.155 20.4813 107.326 20.4813C104.685 20.4813 102.62 22.5804 102.62 25.1198C102.62 27.7947 104.651 29.6566 107.293 29.6566C109.223 29.6555 110.746 28.6743 111.559 27.0494Z" fill="#083E9E"/>
<path d="M122.593 16.52L127.13 28.0642L131.803 16.52H136.544L126.59 39.8794H122.358L124.863 33.6501L117.584 16.52H122.593Z" fill="#083E9E"/>
<path d="M135.695 16.52H140.536L144.939 28.1997L149.307 16.52H154.047L147.107 33.8194H142.568L135.695 16.52Z" fill="#083E9E"/>
<path d="M154.382 25.0524C154.382 20.1778 157.869 16.149 163.32 16.149C168.365 16.149 172.191 19.9407 172.293 24.9168C172.327 25.3233 172.327 25.7637 172.293 26.203H158.647C158.783 28.6408 161.119 30.2317 163.624 30.2317C165.689 30.2317 166.909 29.6559 168.332 28.4714L170.804 31.0785C168.806 33.1776 166.808 34.1589 163.625 34.1589C157.767 34.1589 154.382 29.7913 154.382 25.0524ZM158.885 22.9872H167.62C167.18 21.3623 165.622 19.9407 163.252 19.9407C160.51 19.9407 159.359 21.3285 158.885 22.9872Z" fill="#083E9E"/>
<path d="M173.238 31.9577L175.439 28.3692C177.403 29.6554 179.74 30.4345 182.142 30.4345C184.411 30.4345 185.562 29.8586 185.562 28.8773C185.562 28.2338 185.02 27.7606 183.869 27.5235L179.129 26.5084C175.642 25.7632 174.05 24.1044 174.05 21.3968C174.05 18.5197 176.489 16.1158 181.533 16.1158C184.58 16.1158 187.289 16.9965 189.151 18.1472L187.085 21.6001C185.562 20.787 183.531 19.9075 181.397 19.9075C179.467 19.9075 178.35 20.3817 178.35 21.2613C178.35 21.8371 178.757 22.2098 179.874 22.4118L183.869 23.1571C188.204 24.004 189.862 25.9337 189.862 28.5397C189.862 32.2974 186.105 34.261 182.007 34.261C178.724 34.26 176.083 33.5825 173.238 31.9577Z" fill="#083E9E"/>
<path d="M190.775 16.5203H193.348V11.7475L197.851 8.83655V16.5214H200.492V20.4485H197.85V33.8209H193.347V20.4475H190.773L190.775 16.5203Z" fill="#083E9E"/>
<path d="M38.3707 19.3025C38.2898 18.1934 38.1216 17.1084 37.832 16.0398C36.5457 11.2822 33.8364 7.55281 29.6968 4.88447C27.0609 3.17113 24.143 2.22267 21 1.97354C19.6896 1.87738 18.3956 1.91671 17.093 2.07843C15.7183 2.26309 14.3839 2.58435 13.0899 3.05092C7.3831 5.12485 2.99315 9.842 1.35388 15.6934C0.999799 16.9554 0.791065 18.2415 0.702545 19.5517C0.662109 20.227 0.662109 20.9022 0.662109 21.5775V37.9897C0.662109 38.8737 1.37792 39.597 2.26969 39.597H8.61146C9.43984 39.597 10.1229 38.9622 10.2114 38.158C10.2114 38.158 10.2114 38.158 10.2114 38.1503C10.2518 37.9974 10.2759 37.8367 10.2759 37.6761V37.2981C10.2759 37.2663 10.2682 37.2423 10.2759 37.2095V37.1855C10.3316 37.1932 10.3644 37.226 10.3961 37.2423C12.7992 38.5601 15.3641 39.3316 18.0974 39.5413C19.1748 39.6222 20.2601 39.6134 21.3529 39.5096C22.3256 39.4135 23.2905 39.2605 24.2467 39.0113C28.3548 37.9263 31.747 35.7322 34.3916 32.3886C36.667 29.5116 37.9686 26.2236 38.3391 22.5751C38.4515 21.4802 38.4592 20.3952 38.3707 19.3025ZM22.9058 29.7902C22.8818 29.9103 22.7857 29.9912 22.6643 29.9912H16.4264C16.3138 29.9912 16.2089 29.9103 16.1849 29.7902L16.1772 29.7497V29.5169C16.1772 29.2198 16.2089 28.9466 16.2734 28.6647C16.3138 28.5685 16.3378 28.456 16.3783 28.3511C16.41 28.2462 16.4592 28.1501 16.4985 28.0452C16.5543 27.9489 16.6034 27.8517 16.6592 27.7644C16.6908 27.7162 16.716 27.6758 16.7476 27.6277C16.8034 27.5392 16.8767 27.4508 16.9411 27.371C17.0132 27.2824 17.0854 27.2026 17.1586 27.1218C17.528 26.7601 17.987 26.4705 18.493 26.31C17.8012 25.9406 17.3356 25.2008 17.3356 24.3649C17.3356 23.1433 18.3247 22.1544 19.5465 22.1468C20.1574 22.1468 20.7126 22.4036 21.1136 22.7981C21.5158 23.2001 21.7649 23.7542 21.7649 24.3649C21.7649 25.2008 21.2906 25.9406 20.6076 26.31C21.9496 26.7525 22.9223 28.0134 22.9223 29.5169C22.9211 29.6055 22.9135 29.7028 22.9058 29.7902ZM33.6934 16.1599H5.3974C5.17228 16.1599 5.01163 15.9349 5.08376 15.7174C7.18202 9.76223 12.8648 5.48544 19.5454 5.48544C26.2259 5.48544 31.9087 9.76114 34.0059 15.7174C34.0791 15.9349 33.9185 16.1599 33.6934 16.1599Z" fill="#083E9E"/>
</g>
<defs>
<clipPath id="clip0_2_1019">
<rect width="200" height="40" fill="white" transform="translate(0.522461 0.956299)"/>
</clipPath>
</defs>
</svg>
